# xmcd
#
# Track frame offsets:
#	150
#	874
#	15683
#	27726
#	39852
#	53707
#	69880
#	84542
#	100949
#	118449
#	133089
#	144381
#	155039
#	173935
#	185489
#	198843
#	216126
#	217380
#	230242
#	233023
#	245591
#	247276
#	261830
#	276890
#	291962
#	302758
#	318339
#	327171
#
# Disc length: 4654 seconds
#
# Revision: 1
# Processed by: cddbd v1.5.2PL0 Copyright (c) Steve Scherf et al.
# Submitted via: audiograbber 1.83.01
#
DISCID=a7122c1c
DTITLE=Country Hotdisc - Country Hotdisc 055A
DYEAR=1900
DGENRE=
TTITLE0=Intro - Intro
TTITLE1=Room For A Boy  - Stu Stevens
TTITLE2=Tally Ho  - Marvelt Felts
TTITLE3=Take My Advice  - Geaorge Hamilton
TTITLE4=The Last Hawk  - Mandy and Joe Sun
TTITLE5=Kay  - Daryle Singletary 
TTITLE6=Here I Go Again - Beverly Baker
TTITLE7=Lonesome Texas Time  - R B Stone 
TTITLE8=Every Beat Of My Heart  - Boomer Mclennan
TTITLE9=Down Any Country Road  - Redfern and Crookes
TTITLE10=My Future Ain´t What It Used To Be  - Lonnie Spiker
TTITLE11=Blueridge Mountain Blues - The Rosinators
TTITLE12=You´re Already Gone  - Evangeline 
TTITLE13=Hearts May Be Broken  - Angela Lidin
TTITLE14=Still Your Fool  - Lou Hobbs
TTITLE15=Roll On  - Bunco Kelly
TTITLE16=Soundbite  - K V Williams
TTITLE17=Beauty´s In The Eye Of The Bearholder  - K V Williams
TTITLE18=Spot  - Frank Riedel
TTITLE19=Since Youre Gone  - Frank Riedel
TTITLE20=Spot  - Wayne Austin
TTITLE21=After All - Wayne Austin
TTITLE22=Bye Bye  - Joe Dee Massina
TTITLE23=I Always Get Lucky With You  - George Jones
TTITLE24=Near You  - George Jones and Tammy Wynette
TTITLE25=Let´s Take The Long Way Around The World - Ronnie Milsap
TTITLE26=Who´s Cheating Who - Charel Mcclain
TTITLE27=Down On The Bayou  - Kenny Jonson
EXTD=
EXTT0=
EXTT1=
EXTT2=
EXTT3=
EXTT4=
EXTT5=
EXTT6=
EXTT7=
EXTT8=
EXTT9=
EXTT10=
EXTT11=
EXTT12=
EXTT13=
EXTT14=
EXTT15=
EXTT16=
EXTT17=
EXTT18=
EXTT19=
EXTT20=
EXTT21=
EXTT22=
EXTT23=
EXTT24=
EXTT25=
EXTT26=
EXTT27=
PLAYORDER=
